<?xml version="1.0" encoding="UTF-8" standalone="no"?>
<!-- Generator: Adobe Illustrator 16.0.0, SVG Export Plug-In . SVG Version: 6.00 Build 0)  -->

<svg
   xmlns:dc="http://purl.org/dc/elements/1.1/"
   xmlns:cc="http://creativecommons.org/ns#"
   xmlns:rdf="http://www.w3.org/1999/02/22-rdf-syntax-ns#"
   xmlns:svg="http://www.w3.org/2000/svg"
   xmlns="http://www.w3.org/2000/svg"
   xmlns:sodipodi="http://sodipodi.sourceforge.net/DTD/sodipodi-0.dtd"
   xmlns:inkscape="http://www.inkscape.org/namespaces/inkscape"
   version="1.1"
   id="Layer_1"
   x="0px"
   y="0px"
   width="220.48882"
   height="35.491947"
   viewBox="68.133 0 220.48881 35.491948"
   enable-background="new 68.133 0 205.167 37.473"
   xml:space="preserve"
   sodipodi:docname="logo-text-white.svg"
   inkscape:version="0.92.2 5c3e80d, 2017-08-06"><metadata
     id="metadata27"><rdf:RDF><cc:Work
         rdf:about=""><dc:format>image/svg+xml</dc:format><dc:type
           rdf:resource="http://purl.org/dc/dcmitype/StillImage" /><dc:title></dc:title></cc:Work></rdf:RDF></metadata><defs
     id="defs25" /><sodipodi:namedview
     pagecolor="#ffffff"
     bordercolor="#666666"
     borderopacity="1"
     objecttolerance="10"
     gridtolerance="10"
     guidetolerance="10"
     inkscape:pageopacity="0"
     inkscape:pageshadow="2"
     inkscape:window-width="1389"
     inkscape:window-height="800"
     id="namedview23"
     showgrid="false"
     fit-margin-top="1"
     fit-margin-left="1"
     fit-margin-right="1"
     fit-margin-bottom="1"
     inkscape:zoom="2.8074689"
     inkscape:cx="100.54383"
     inkscape:cy="3.3526832"
     inkscape:window-x="0"
     inkscape:window-y="0"
     inkscape:window-maximized="0"
     inkscape:current-layer="text839" /><g
     id="Layer_4"
     display="none"
     style="display:none"
     transform="translate(-0.52772769,-0.64580643)"><path
       display="inline"
       d="m 170.148,17.94 c -3.716,-0.685 -5.986,-1.312 -7.348,-2.673 -1.36,-1.36 -1.988,-3.63 -2.673,-7.348 -0.058,-0.307 -0.321,-0.528 -0.636,-0.528 -0.312,0 -0.58,0.225 -0.635,0.528 -0.685,3.718 -1.312,5.986 -2.673,7.348 -1.361,1.36 -3.633,1.988 -7.348,2.673 -0.306,0.059 -0.528,0.322 -0.528,0.637 0,0.312 0.224,0.579 0.528,0.635 3.715,0.685 5.986,1.313 7.348,2.673 1.359,1.36 1.988,3.632 2.673,7.348 0.055,0.307 0.321,0.528 0.635,0.528 0.312,0 0.578,-0.224 0.636,-0.528 0.685,-3.716 1.312,-5.985 2.673,-7.348 1.36,-1.357 3.632,-1.988 7.348,-2.673 0.307,-0.056 0.528,-0.321 0.528,-0.635 0,-0.314 -0.221,-0.579 -0.528,-0.637 z"
       id="path2"
       inkscape:connector-curvature="0"
       style="display:inline;fill:#ffffff" /></g><g
     id="Layer_2"
     display="none"
     style="display:none"
     transform="translate(-0.52772769,-0.64580643)"><path
       display="inline"
       stroke-miterlimit="10"
       d="m -13.007,-45.615 c 6.705,-9.825 10.625,-21.703 10.625,-34.496 0,-33.843 -27.435,-61.275 -61.277,-61.275 -33.842,0 -61.276,27.435 -61.276,61.275 0,33.843 27.435,61.276 61.276,61.276 14.613,0 28.031,-5.115 38.562,-13.652"
       id="path5"
       inkscape:connector-curvature="0"
       style="display:inline;fill:none;stroke:#000000;stroke-width:8;stroke-linecap:round;stroke-miterlimit:10" /></g><g
     id="g20"
     transform="translate(-0.52772769,-0.64580643)"><g
       aria-label="NEROZUM"
       style="font-style:normal;font-variant:normal;font-weight:normal;font-stretch:normal;font-size:41.70852661px;line-height:1.25;font-family:'Josefin Sans';-inkscape-font-specification:'Josefin Sans';letter-spacing:0px;word-spacing:0px;fill:#000000;fill-opacity:1;stroke:none;stroke-width:1"
       id="text839"><path
         d="M 97.313481,3.1890219 V 35.137753 H 97.146647 L 75.666756,15.743288 75.791881,33.886497 H 69.660728 V 1.9794746 h 0.250251 L 91.349162,21.665899 91.224036,3.1890219 Z"
         style="font-style:normal;font-variant:normal;font-weight:bold;font-stretch:normal;font-family:'Josefin Sans';-inkscape-font-specification:'Josefin Sans Bold';stroke-width:1;fill:#ffffff;fill-opacity:1"
         id="path841" /><path
         d="m 126.19729,3.1890219 v 5.8391937 h -14.88995 v 6.5482384 h 13.1799 v 5.839194 h -13.1799 v 6.631656 h 15.47387 v 5.839193 h -21.5216 V 3.1890219 Z"
         style="font-style:normal;font-variant:normal;font-weight:bold;font-stretch:normal;font-family:'Josefin Sans';-inkscape-font-specification:'Josefin Sans Bold';stroke-width:1;fill:#ffffff;fill-opacity:1"
         id="path843" /><path
         d="m 149.59642,33.886497 -6.46482,-9.759795 h -4.04573 v 9.759795 h -6.04773 V 3.1890219 h 9.301 q 5.71407,0 8.84221,2.7944713 3.16985,2.7527628 3.16985,7.5492438 0,2.836179 -1.20955,5.338691 -1.16784,2.460803 -3.62864,3.878893 l 7.13215,11.136176 z M 139.08587,18.287509 h 4.29598 q 2.46081,0 3.58694,-1.41809 1.12613,-1.459799 1.12613,-3.12814 0,-1.668341 -0.9593,-3.169848 -0.9593,-1.5432154 -3.71206,-1.5432154 h -4.33769 z"
         style="font-style:normal;font-variant:normal;font-weight:bold;font-stretch:normal;font-family:'Josefin Sans';-inkscape-font-specification:'Josefin Sans Bold';stroke-width:1;fill:#ffffff;fill-opacity:1"
         id="path845" /><path
         d="m 158.6954,18.579468 q 0,-4.170852 2.08543,-7.799494 2.12714,-3.6286421 5.71407,-5.7557769 3.62864,-2.1688434 7.8412,-2.1688434 4.21256,0 7.7995,2.1688434 3.62864,2.1271348 5.75577,5.7557769 2.16885,3.628642 2.16885,7.799494 0,4.25427 -2.16885,7.841203 -2.12713,3.586934 -5.75577,5.714068 -3.58694,2.085427 -7.7995,2.085427 -4.25427,0 -7.8412,-2.085427 -3.58693,-2.127134 -5.71407,-5.714068 -2.08543,-3.586933 -2.08543,-7.841203 z m 6.25628,0 q 0,2.669346 1.25126,4.921606 1.29296,2.252261 3.46181,3.586934 2.21055,1.292964 4.87989,1.292964 2.58593,0 4.71307,-1.292964 2.12713,-1.334673 3.33668,-3.545225 1.20955,-2.252261 1.20955,-4.963315 0,-2.752763 -1.25126,-5.005023 -1.25125,-2.25226 -3.4201,-3.545225 -2.12713,-1.3346726 -4.75477,-1.3346726 -2.62764,0 -4.79648,1.3346726 -2.12714,1.292965 -3.37839,3.545225 -1.25126,2.25226 -1.25126,5.005023 z"
         style="font-style:normal;font-variant:normal;font-weight:bold;font-stretch:normal;font-family:'Josefin Sans';-inkscape-font-specification:'Josefin Sans Bold';stroke-width:1;fill:#ffffff;fill-opacity:1"
         id="path847" /><path
         d="m 203.16777,28.047304 h 15.72412 v 5.839193 H 192.78235 L 208.38134,9.0282156 h -9.34271 q -1.41809,0 -2.75277,-0.875879 Q 194.9929,7.234749 194.9929,6.0252017 V 1.6458064 h 5.54723 v 0.5839194 q 0,0.709045 0.16684,0.8758791 0.16683,0.1251255 0.54221,0.1251255 0.37538,-0.041708 0.62563,-0.041708 h 17.05878 z"
         style="font-style:normal;font-variant:normal;font-weight:bold;font-stretch:normal;font-family:'Josefin Sans';-inkscape-font-specification:'Josefin Sans Bold';stroke-width:1;fill:#ffffff;fill-opacity:1"
         id="path849" /><path
         d="m 230.43081,22.541778 q 0,1.459799 0.87588,2.794472 0.87588,1.334672 2.33568,2.168843 1.4598,0.83417 3.12814,0.83417 1.79347,0 3.29497,-0.83417 1.50151,-0.834171 2.33568,-2.168843 0.87588,-1.334673 0.87588,-2.794472 V 3.1890219 h 5.96432 V 22.666904 q 0,3.294973 -1.66834,5.964319 -1.66834,2.627637 -4.54623,4.129144 -2.83618,1.459799 -6.25628,1.459799 -3.4201,0 -6.25628,-1.459799 -2.83618,-1.501507 -4.50452,-4.129144 -1.62663,-2.669346 -1.62663,-5.964319 V 3.1890219 h 6.04773 z"
         style="font-style:normal;font-variant:normal;font-weight:bold;font-stretch:normal;font-family:'Josefin Sans';-inkscape-font-specification:'Josefin Sans Bold';stroke-width:1;fill:#ffffff;fill-opacity:1"
         id="path851" /><path
         d="M 288.14954,1.9377661 V 33.886497 H 282.1018 V 19.246805 l -10.01004,14.222607 h -0.0834 l -9.63467,-13.30502 v 13.722105 h -5.83919 V 1.9377661 h 0.0417 L 272.13347,24.001577 288.06612,1.9377661 Z"
         style="font-style:normal;font-variant:normal;font-weight:bold;font-stretch:normal;font-family:'Josefin Sans';-inkscape-font-specification:'Josefin Sans Bold';stroke-width:1;fill:#ffffff;fill-opacity:1"
         id="path853" /></g></g></svg>